<svg width="110" height="135" viewBox="0 0 110 135" fill="none" xmlns="http://www.w3.org/2000/svg">
<path d="M90.332 39.062H75.77L71.6255 28.25C71.313 27.4375 70.5435 26.918 69.688 26.918H40.313C39.4575 26.918 38.6685 27.461 38.3755 28.25L34.231 39.062H19.669C18.5245 39.062 17.587 39.9995 17.587 41.144V91.039C17.587 92.1835 18.5245 93.121 19.669 93.121H90.337C91.4815 93.121 92.419 92.1835 92.419 91.039V41.144C92.419 39.9799 91.4815 39.062 90.3331 39.062H90.332ZM88.25 88.937H21.75V43.23H35.668C36.5235 43.23 37.3125 42.687 37.6055 41.898L41.75 31.086H68.27L72.4145 41.898C72.727 42.7105 73.4965 43.23 74.352 43.23H88.27V88.937H88.25Z" fill="black"/>
<path d="M55 48.832C46.4375 48.832 39.48 55.789 39.48 64.352C39.48 72.915 46.437 79.872 55 79.872C63.563 79.872 70.52 72.915 70.52 64.352C70.52 55.8129 63.563 48.832 55 48.832ZM55 75.707C48.75 75.707 43.645 70.625 43.645 64.352C43.645 58.102 48.727 52.997 55 52.997C61.2695 52.997 66.355 58.079 66.355 64.352C66.355 70.6059 61.2495 75.707 55 75.707Z" fill="black"/>
</svg>
